<?xml version="1.0"?><svg width="319.17307" height="313.17737" xmlns="http://www.w3.org/2000/svg" xmlns:xlink="http://www.w3.org/1999/xlink">
 <defs>
  <filter id="filter10343" color-interpolation-filters="sRGB">
   <feGaussianBlur id="feGaussianBlur10345" stdDeviation="0.742857"/>
  </filter>
  <filter id="filter9518" color-interpolation-filters="sRGB">
   <feGaussianBlur id="feGaussianBlur9520" stdDeviation="0.713761"/>
  </filter>
  <linearGradient y2="1.011945" x2="0.500011" y1="-0.011912" x1="0.500011" id="linearGradient6323" xlink:href="#linearGradient9356"/>
  <linearGradient id="linearGradient9356">
   <stop stop-color="#f9f8f8" id="stop9358" offset="0"/>
   <stop stop-color="#ececec" offset="0.070067" id="stop9364"/>
   <stop stop-color="#e8e7e7" id="stop9366" offset="0.933283"/>
   <stop stop-color="#b4b3b4" id="stop9360" offset="1"/>
  </linearGradient>
  <linearGradient y2="1.216368" x2="0.305204" y1="0.815018" x1="0.290969" id="linearGradient6325" xlink:href="#linearGradient9376"/>
  <linearGradient id="linearGradient9376">
   <stop stop-color="#dad9d9" id="stop9378" offset="0"/>
   <stop stop-color="#dad9d9" offset="0.27966" id="stop9384"/>
   <stop stop-color="#000000" id="stop9380" offset="1"/>
  </linearGradient>
  <radialGradient r="25.809397" fy="94.287537" fx="103.59114" cy="94.287537" cx="103.59114" gradientTransform="matrix(2.939307451248169,0,0,1.021848440170288,-218.8277130126953,1962.913330078125)" gradientUnits="userSpaceOnUse" id="radialGradient6327" xlink:href="#linearGradient9498"/>
  <linearGradient id="linearGradient9498">
   <stop stop-color="#ffffff" id="stop9500" offset="0"/>
   <stop stop-color="#ffffff" stop-opacity="0" id="stop9502" offset="1"/>
  </linearGradient>
  <radialGradient r="25.809397" fy="94.287537" fx="103.59114" cy="94.287537" cx="103.59114" gradientTransform="matrix(0.5075876712799072,0,0,0.6563256978988647,370.0235595703125,1969.367919921875)" gradientUnits="userSpaceOnUse" id="radialGradient6329" xlink:href="#linearGradient9498"/>
 </defs>
 <metadata id="metadata7700">image/svg+xml</metadata>
 <g>
  <title>Layer 1</title>
  <rect transform="matrix(4, 0, 0, 4, -87.7007, -3297.23)" opacity="0.722449" fill="#888a85" stroke="#888a85" stroke-width="0.442913" stroke-miterlimit="4" filter="url(#filter10343)" id="rect10767" width="74.285713" height="74.285713" x="25.428402" y="826.311513" ry="9.285714"/>
  <rect transform="matrix(4, 0, 0, 4, -87.7007, -3297.23)" fill="url(#linearGradient6323)" stroke="url(#linearGradient6325)" stroke-width="0.442913" stroke-miterlimit="4" ry="9.285714" y="824.811513" x="22.678402" height="74.285713" width="74.285713" id="rect10769"/>
  <path opacity="0.763265" fill="url(#radialGradient6327)" filter="url(#filter9518)" id="path10771" d="m182.8685,52.957031c0,26.55835 -39.621613,48.087891 -88.497375,48.087891c-48.875717,0 -88.497337,-21.529541 -88.497337,-48.087891c0,-26.558105 39.62162,-48.087891 88.497337,-48.087891c48.875763,0 88.497375,21.529785 88.497375,48.087891z"/>
  <path opacity="0.763265" fill="url(#radialGradient6329)" filter="url(#filter9518)" d="m293.781647,258.41333c0,21.284668 -16.465118,38.539307 -36.775909,38.539307c-20.31076,0 -36.775879,-17.254639 -36.775879,-38.539307c0,-21.284424 16.465118,-38.539063 36.775879,-38.539063c20.310791,0 36.775909,17.254639 36.775909,38.539063z" id="path10773"/>
  <path fill="#000000" d="m93.1026,150.588867c0,15.75 -12.768051,28.518066 -28.518219,28.518066c-15.750168,0 -28.518219,-12.768066 -28.518219,-28.518066c0,-15.750244 12.768051,-28.518311 28.518219,-28.518311c15.750168,0 28.518219,12.768066 28.518219,28.518311z" id="path10777"/>
  <path fill="#000000" id="path10779" d="m268.1026,150.588867c0,15.75 -12.768036,28.518066 -28.518219,28.518066c-15.750183,0 -28.518219,-12.768066 -28.518219,-28.518066c0,-15.750244 12.768036,-28.518311 28.518219,-28.518311c15.750183,0 28.518219,12.768066 28.518219,28.518311z"/>
  <path fill="#000000" id="path10781" d="m92.1026,54.588867c0,15.75 -12.768051,28.518066 -28.518219,28.518066c-15.750168,0 -28.518219,-12.768066 -28.518219,-28.518066c0,-15.750244 12.768051,-28.518311 28.518219,-28.518311c15.750168,0 28.518219,12.768066 28.518219,28.518311z"/>
  <path fill="#000000" d="m268.1026,54.588867c0,15.75 -12.768036,28.518066 -28.518219,28.518066c-15.750183,0 -28.518219,-12.768066 -28.518219,-28.518066c0,-15.750244 12.768036,-28.518311 28.518219,-28.518311c15.750183,0 28.518219,12.768066 28.518219,28.518311z" id="path10783"/>
  <path fill="#000000" id="path10785" d="m93.1026,239.588867c0,15.75 -12.768051,28.518066 -28.518219,28.518066c-15.750168,0 -28.518219,-12.768066 -28.518219,-28.518066c0,-15.750244 12.768051,-28.518311 28.518219,-28.518311c15.750168,0 28.518219,12.768066 28.518219,28.518311z"/>
  <path fill="#000000" d="m268.1026,238.588867c0,15.75 -12.768036,28.518066 -28.518219,28.518066c-15.750183,0 -28.518219,-12.768066 -28.518219,-28.518066c0,-15.750244 12.768036,-28.518311 28.518219,-28.518311c15.750183,0 28.518219,12.768066 28.518219,28.518311z" id="path10787"/>
  <path fill="#ffffff" id="path10791" d="m35.191086,153.733887c-0.097198,0.959961 -0.095215,1.86792 -0.095215,2.851807c0,15.752197 12.690796,28.536133 28.440796,28.536133c15.750427,0 28.536011,-12.783936 28.536011,-28.536133c0,-0.983887 0.002411,-1.891846 -0.094788,-2.851807c-1.588409,14.247803 -13.770813,25.299805 -28.440796,25.299805c-14.670013,0 -26.757629,-11.052002 -28.345612,-25.299805l-0.000397,0z"/>
  <path fill="#ffffff" id="path10793" d="m211.18985,153.733887c-0.095947,0.959961 -0.095947,1.86792 -0.095947,2.851807c0,15.752197 12.691956,28.536133 28.44397,28.536133c15.748047,0 28.536011,-12.783936 28.536011,-28.536133c0,-0.983887 0,-1.891846 -0.096008,-2.851807c-1.587952,14.247803 -13.771973,25.299805 -28.440002,25.299805c-14.671997,0 -26.76001,-11.052002 -28.348022,-25.299805l0,0z"/>
  <path fill="#ffffff" d="m211.18985,241.733887c-0.095947,0.959961 -0.095947,1.86792 -0.095947,2.851807c0,15.752197 12.691956,28.536133 28.44397,28.536133c15.748047,0 28.536011,-12.783936 28.536011,-28.536133c0,-0.983887 0,-1.891846 -0.096008,-2.851807c-1.587952,14.247803 -13.771973,25.299805 -28.440002,25.299805c-14.671997,0 -26.76001,-11.052002 -28.348022,-25.299805l0,0z" id="path10795"/>
  <path fill="#ffffff" id="path10797" d="m35.191086,241.733887c-0.097198,0.959961 -0.095215,1.86792 -0.095215,2.851807c0,15.752197 12.690796,28.536133 28.440796,28.536133c15.750427,0 28.536011,-12.783936 28.536011,-28.536133c0,-0.983887 0.002411,-1.891846 -0.094788,-2.851807c-1.588409,14.247803 -13.770813,25.299805 -28.440796,25.299805c-14.670013,0 -26.757629,-11.052002 -28.345612,-25.299805l-0.000397,0z"/>
  <path fill="#ffffff" d="m35.191086,57.733887c-0.097198,0.959961 -0.095215,1.86792 -0.095215,2.851807c0,15.752197 12.690796,28.536133 28.440796,28.536133c15.750427,0 28.536011,-12.783936 28.536011,-28.536133c0,-0.983887 0.002411,-1.891846 -0.094788,-2.851807c-1.588409,14.247803 -13.770813,25.299805 -28.440796,25.299805c-14.670013,0 -26.757629,-11.052002 -28.345612,-25.299805l-0.000397,0z" id="path10799"/>
  <path fill="#ffffff" id="path10801" d="m211.18985,57.733887c-0.095947,0.959961 -0.095947,1.86792 -0.095947,2.851807c0,15.752197 12.691956,28.536133 28.44397,28.536133c15.748047,0 28.536011,-12.783936 28.536011,-28.536133c0,-0.983887 0,-1.891846 -0.096008,-2.851807c-1.587952,14.247803 -13.771973,25.299805 -28.440002,25.299805c-14.671997,0 -26.76001,-11.052002 -28.348022,-25.299805l0,0z"/>
 </g>
</svg>